<svg width="828" height="824" viewBox="0 0 828 824" fill="none" xmlns="http://www.w3.org/2000/svg">
<g clip-path="url(#clip0_950_119)">
<path d="M222.916 758.615C206.054 766.909 189.086 771.843 170.932 773.631C152.965 775.4 136.13 771.744 117.684 764.567C120.628 775.552 126.818 781.238 134.087 785.726C160.553 802.065 188.203 799.639 215.037 788.024C238.548 777.848 261.018 765.243 283.821 753.466C290.723 749.902 296.643 749.445 302.002 755.904C307.933 763.051 307.361 771.262 299.061 775.435C269.01 790.542 240.641 809.298 207.946 818.765C188.931 824.27 169.746 824.732 150.225 820.465C111.042 811.9 73.3616 774.805 94.3328 722.628C92.4136 719.244 88.7027 718.056 85.6958 716.021C31.1797 679.141 0.42107 627.975 0.0858336 562.091C-0.239917 498.049 27.6015 446.981 82.1157 411.884C89.2137 407.314 92.2092 402.651 91.9599 394.128C91.3451 373.11 91.809 352.062 91.7324 331.026C91.7213 328.034 91.7398 255.536 91.9452 231.821C91.994 226.182 88.1554 225.574 84.3583 224.247C55.0718 214.01 45.9732 175.501 67.613 153.451C74.9204 146.006 83.6547 142.611 94.2467 142.645C152.405 142.835 210.565 142.707 268.724 142.735C289.426 142.744 304.027 154.378 307.852 173.737C312.064 195.06 301.801 216.884 282.991 223.302C274.514 226.195 272.702 230.329 272.749 238.517C273.048 290.178 273.003 341.843 272.596 393.503C272.526 402.373 274.869 408.001 282.572 413.255C327.71 444.041 354.769 486.833 361.306 541.033C367.059 588.731 354.933 632.454 325.415 670.888C324.479 672.106 323.563 673.34 322.683 674.598C322.58 674.746 322.771 675.099 322.973 676.059C358.96 657.368 394.774 638.765 430.312 620.307C429.962 615.841 426.732 615.259 424.619 613.795C406.062 600.933 395.841 583.231 395.141 560.752C394.313 534.165 395.003 507.56 396.914 481.015C399.437 371.76 395.038 231.844 395.12 91.7157C395.133 69.4591 398.641 48.2877 417.251 33.1317C439.91 14.679 465.308 12.002 492.303 21.5215C496.806 23.1095 501.116 23.7485 505.788 23.9517C529.023 24.9626 550.742 31.2779 570.572 43.5545C581.647 50.4106 590.095 59.8604 595.172 71.8228C597.727 77.8438 601.404 79.5469 607.7 80.2387C636.887 83.4454 664.29 92.7096 681.773 117.359C698.159 140.462 707.415 167.939 718.046 194.053C722.878 205.92 726.382 216.847 735.321 226.866C752.611 246.247 753.953 269.191 743.331 292.663C741.257 297.243 740.312 300.878 743.332 305.51C759.209 329.858 761.392 357.003 758.275 384.895C757.555 391.342 757.981 394.799 764.811 397.567C783.454 405.124 791.333 422.73 785.791 442.491C781.09 459.255 769.667 470.956 755.425 479.705C744.568 486.375 727.287 498.194 713.357 499.174C710.214 491.038 723.998 481.058 715.414 477.451C716.04 472.355 719.72 471.05 722.867 469.147C730.804 464.348 738.878 459.74 746.541 454.531C754.307 449.252 759.587 442.24 758.851 432.092C758.483 427.029 756.653 423.159 751.158 421.919C747.532 423.988 746.964 427.974 745.337 431.146C736.508 448.349 723.07 461.15 708.021 472.955C680.566 494.49 648.913 508.555 618.075 523.799C600.867 532.306 583.329 539.347 567.315 550.635C551.283 561.936 532.544 569.375 515.112 578.729C510.868 581.007 506.8 582.392 501.696 579.827C507.956 595.233 529.631 584.135 543.292 576.149C565.688 563.055 584.986 554.641 608.619 544.153C618.186 543.488 613.093 551.615 613.467 552.319C570.54 575.258 527.667 598.301 484.669 621.108C441.239 644.144 397.702 666.979 354.181 689.843C310.657 712.709 267.095 735.501 222.916 758.615ZM569.864 84.3501C578.112 83.9712 572.988 79.7381 571.82 77.0289C564.366 59.7387 520.502 44.792 505.348 47.4557C499.298 48.5191 494.063 48.6082 488.532 45.2948C463.572 30.342 418.282 44.905 418.835 86.209C420.71 226.277 417.82 366.372 419.442 506.456C419.653 524.706 420.313 542.999 419.381 561.202C418.187 584.528 451.182 605.826 472.352 593.264C479.876 588.8 487.911 585.216 493.652 577.862C489.376 575.838 485.106 574.034 481.045 571.842C475.583 568.894 470.599 564.954 473.636 557.972C476.823 550.646 483.299 549.768 490.084 552.614C495.194 554.757 499.917 557.804 504.913 560.245C529.146 572.082 554.254 559.096 558.368 532.65C560.246 520.58 560.075 520.337 548.23 518.285C539.341 516.746 534.33 511.645 535.495 505.324C536.753 498.497 543.612 495.169 552.415 497.235C565.952 500.412 579.6 503.22 592.952 507.05C601.551 509.516 609.362 508.234 617.396 505.478C627.812 501.903 636.62 494.415 647.992 493.146C657.798 492.052 666.085 487.094 674.22 482.03C678.002 479.676 682.051 477.102 683.031 471.668C677.59 471.157 676.543 478.679 670.983 474.997C672.389 467.95 677.851 464.562 683.406 461.483C690.444 457.583 697.331 453.623 703.584 448.406C725.756 429.907 732.636 404.317 735.586 377.545C737.992 355.709 735.535 334.129 721.528 315.709C711.044 301.923 704.446 301.2 689.506 309.57C668.424 321.382 647.02 324.894 626.311 308.509C622.931 305.835 620.198 306.859 616.914 308.041C609.061 310.866 601.279 313.55 592.555 311.479C585.716 309.856 580.756 306.875 581.248 299.285C581.748 291.566 586.689 287.227 594.26 287.832C608.566 288.973 616.739 283.159 620.837 269.223C623.391 260.535 632.511 259.863 638.374 266.94C641.52 270.737 642.252 275.066 641.409 279.993C639.615 290.464 642.458 294.109 652.871 295.348C662.781 296.528 672.058 294.883 679.969 288.426C689.866 280.349 700.809 277.772 712.919 282.126C719.282 284.415 721.952 281.547 723.878 276.055C728.81 261.989 723.181 244.192 708.884 234.489C700.392 228.725 697.073 221.992 697.509 212.074C698.178 196.846 691.962 184.423 680.128 174.894C676.497 171.971 674.399 168.598 674.651 163.799C676.756 123.694 622.626 97.4175 593.135 106.385C586.072 108.533 579.442 108.988 572.236 107.668C559.482 105.331 548.335 107.976 540.479 119.527C536.27 125.716 530.442 129.748 523.261 124.686C516.226 119.726 517.723 112.813 521.874 106.596C532.952 90.0026 548.339 82.0611 569.864 84.3501ZM210.21 519.63C246.389 519.134 282.588 520.639 318.751 518.509C330.346 517.825 331.9 515.642 327.589 505.011C313.537 470.364 289.384 444.61 256.925 426.75C249.006 422.392 246.22 417.473 246.271 408.592C246.596 351.983 246.187 295.37 246.532 238.761C246.588 229.532 243.605 225.835 234.516 225.859C198.323 225.956 162.129 225.855 125.936 225.68C120.342 225.653 118.24 228.049 118.19 233.46C118.003 253.867 117.305 274.272 117.369 294.676C117.492 333.622 117.871 372.57 118.477 411.512C118.593 418.973 116.011 423.077 109.235 426.602C19.3084 473.391 -2.30169 585.274 63.7618 662.086C81.7605 683.013 103.859 698.293 130.577 707.219C131.84 699.641 128.004 696.348 122.612 693.705C104.97 685.057 88.7337 674.192 75.4162 659.729C42.636 624.13 31.452 582.089 39.1826 534.568C42.1685 516.214 42.634 519.715 57.0808 519.671C107.504 519.52 157.929 519.623 210.21 519.63ZM124.815 167.967C114.922 167.971 105.029 167.989 95.1365 167.971C87.5536 167.958 83.1291 171.588 81.3834 179.038C78.3433 192.013 85.0188 200.268 99.2393 200.285C154.268 200.354 209.296 200.338 264.325 200.284C276.695 200.271 282.738 195.052 282.909 184.651C283.102 173.018 277.768 168.02 264.859 168.007C218.796 167.961 172.733 167.972 124.815 167.967ZM97.695 560.323C97.0299 562.052 96.2092 563.738 95.725 565.516C92.5494 577.176 97.5233 589.396 108.022 595.909C117.81 601.981 131.631 600.745 140.877 592.97C150.21 585.121 153.426 572.951 148.731 562.043C144.677 552.625 137.764 546.321 127.349 544.916C114.664 543.206 105.163 548.512 97.695 560.323ZM255.728 593.581C245.608 582.404 229.771 591.078 228.308 600.97C227.112 609.054 229.08 615.6 236.601 619.696C243.91 623.678 250.592 621.672 255.879 616.224C262.324 609.583 262.36 602.028 255.728 593.581ZM192.363 607.033C185.572 599.575 178.245 597.949 172.565 603.02C166.797 608.169 165.316 614.557 169.784 621.122C173.366 626.384 178.961 628.629 185.1 626.261C193.4 623.059 195.486 616.525 192.363 607.033ZM219.18 677.746C224.551 673.756 225.393 668.702 221.661 663.419C218.758 659.31 214.416 657.85 209.537 660.164C204.167 662.711 202.908 667.456 204.645 672.489C206.799 678.733 211.806 680.298 219.18 677.746ZM202.525 551.977C201.374 557.906 202.75 562.633 209.275 564.041C214.374 565.14 218.53 563.094 220.752 558.324C222.926 553.658 221.019 549.764 217.103 547.055C211.199 542.969 206.665 545.35 202.525 551.977ZM587.351 523.754C585.631 523.282 583.93 522.518 582.187 522.407C579.681 522.247 577.187 522.737 576.202 525.579C575.659 527.147 576.045 528.699 577.393 529.699C579.617 531.348 582.024 531.082 584.292 529.77C586.182 528.677 587.824 527.291 587.351 523.754ZM154.103 708.196C152.225 709.048 149.918 709.547 150.716 713.354C154.356 714.333 158.231 716.01 162.348 713.755C163.017 713.389 163.386 711.411 163.058 710.469C161.653 706.436 158.134 708.107 154.103 708.196Z" fill="black"/>
<path d="M440.496 673.288C497.601 643.594 554.089 614.204 610.593 584.843C613.881 583.135 617.195 581.4 620.666 580.141C626.607 577.986 630.92 580.887 634.093 585.569C637.328 590.345 637.927 595.566 633.785 600.076C631.553 602.505 628.551 604.406 625.589 605.96C528.146 657.063 431.117 708.96 332.825 758.43C330.349 759.676 327.834 761.095 325.173 761.67C317.858 763.25 312.404 760.305 309.191 753.675C305.893 746.87 308.48 741.382 314.427 737.842C321.585 733.582 329.183 730.057 336.616 726.264C371.033 708.699 405.46 691.152 440.496 673.288Z" fill="black"/>
<path d="M638.512 572.986C638.556 570.636 646.117 566.262 648.287 565.137C701.467 537.566 754.652 510.006 807.887 482.543C818.059 477.295 839.059 486.41 820.289 502.872C818.218 504.688 806.392 511.288 803.939 512.579C756.416 537.61 708.899 562.65 661.319 587.571C655.655 590.537 638.095 595.172 638.512 572.986Z" fill="black"/>
<path d="M295.564 96.0989C290.303 98.8295 285.76 101.502 280.948 103.537C274.544 106.245 269.25 104.075 266.037 98.169C262.901 92.404 263.232 86.1074 269.011 82.4867C283.913 73.1491 299.003 63.6499 316.475 60.0139C341.44 54.8189 363.458 74.4011 365.627 102.865C366.492 114.205 364.235 125.015 359.684 135.32C356.041 143.572 349.361 147.133 342.945 144.758C335.785 142.107 333.297 135.31 336.56 126.197C339.081 119.16 341.172 112.135 340.534 104.537C339.163 88.213 327.603 81.0848 312.803 87.6378C307.163 90.135 301.703 93.0387 295.564 96.0989Z" fill="black"/>
<path d="M177.706 61.6714C195.614 46.2497 211.389 44.1296 227.063 54.6265C242.445 64.9279 248.769 84.0703 242.753 102.121C236.847 119.839 219.968 131.583 201.609 130.745C172.679 129.426 156.196 95.7759 171.699 69.559C173.26 66.9205 175.374 64.6096 177.706 61.6714ZM203.874 70.0889C199.241 74.1406 194.899 78.5107 189.073 81.0355C182.999 83.668 181.605 88.5588 182.913 94.801C185.428 106.805 193.06 113.575 204.539 113.599C216.501 113.624 226.22 104.961 228.617 92.139C230.345 82.8933 223.647 70.9754 214.827 67.0865C210.81 65.3151 207.684 66.1084 203.874 70.0889Z" fill="black"/>
<path d="M204.64 18.5004C207.422 23.4608 209.377 28.0469 209.663 33.0369C209.862 36.5156 210.988 41.0121 205.598 41.9027C200.88 42.6821 196.725 42.894 194.988 36.3909C192.438 26.8419 186.261 20.0133 176.158 17.9496C164.667 15.6025 153.712 22.165 149.788 33.3214C145.994 44.1085 150.409 55.0224 160.761 60.9329C163.669 62.5933 167.441 62.5718 169.654 65.4971C166.128 79.5947 162.087 81.4167 150.186 74.3287C137.894 67.0078 129.078 49.5583 131.408 36.4796C134.522 19.0018 143.271 6.11485 161.412 1.51147C178.04 -2.70791 193.535 3.30038 204.64 18.5004Z" fill="black"/>
<path d="M640.593 538.91C638.077 539.66 630.511 539.425 633.84 535.442C659.882 516.925 699.093 498.969 699.273 505.773C703.878 508.999 660.946 528.443 640.593 538.91Z" fill="black"/>
<path d="M539.396 224.208C554.972 225.413 565.365 219.906 571.394 207.797C577.871 194.786 575.571 177.77 565.791 167.09C563.918 165.044 561.779 163.231 559.683 161.404C554.35 156.754 553.553 151.39 557.863 145.865C562.039 140.511 567.612 139.685 573.648 142.695C579.436 145.581 582.806 151.018 586.421 155.926C592.181 163.746 600.037 162.335 607.509 161.209C614.873 160.1 619.37 155.014 621.037 147.655C621.173 147.052 621.227 146.432 621.349 145.825C622.76 138.84 624.618 131.957 633.808 132.762C640.507 133.348 644.826 141.08 644.166 150.09C642.941 166.797 626.533 183.097 609.304 184.674C606.268 184.952 603.216 185.064 599.454 185.297C598.874 190.446 598.401 195.267 597.778 200.069C594.624 224.377 574.77 244.661 550.576 248.36C538.077 250.272 527.313 246.35 518.16 238.09C514.384 234.683 510.914 233.532 505.712 234.352C493.053 236.348 481.009 234.476 470.94 225.554C463.462 218.927 461.964 211.135 467.046 205.326C472.012 199.649 477.864 200.313 486.19 207.518C491.689 212.277 497.803 214.66 504.972 211.89C515.068 207.988 523.505 209.039 530.228 218.579C532.02 221.123 535.803 222.265 539.396 224.208Z" fill="black"/>
<path d="M521.074 407.067C517.155 409.031 513.986 411.103 510.516 412.303C488.113 420.05 476.604 435.869 475.084 459.309C474.925 461.766 474.671 465.323 471.782 465.137C465.304 464.719 464.109 470.387 460.945 473.73C455.328 472.149 454.957 467.481 454.329 463.416C453.046 455.104 452.838 446.601 456.092 438.736C464.317 418.858 475.282 399.907 497.082 393.79C537.866 382.347 544.972 333.497 514.215 302.932C510.026 298.769 505.155 295.517 499.901 292.798C493.182 289.32 488.692 284.659 492.821 276.527C496.405 269.469 504.143 267.078 511.877 271.582C533.186 283.993 546.898 302.405 552.953 326.343C560.131 354.727 551.14 389.891 521.074 407.067Z" fill="black"/>
<path d="M486.876 121.66C488.638 101.849 482.204 87.6444 463.384 80.4288C456.565 77.8142 453.782 72.1886 456.536 65.4318C459.238 58.8004 464.919 57.0828 471.932 58.8184C492.39 63.8818 508.911 85.9632 510.389 110.55C512.46 144.983 487.748 174.931 453.587 179.581C445.939 180.622 439.568 179.102 437.664 170.881C435.692 162.368 440.998 158.395 448.625 156.799C468.01 152.742 482.172 142.906 486.876 121.66Z" fill="black"/>
<path d="M674.313 417.038C668.606 418.966 662.965 418.974 662.526 427.101C662.207 433.005 655.895 431.722 651.954 430.699C641.475 427.981 634.535 420.641 629.106 411.638C623.562 402.443 619.393 402.086 612.624 410.352C607.9 416.12 603.791 422.293 602.059 429.706C600.552 436.156 597.03 441.611 593.667 447.156C591.673 450.441 588.789 451.914 585.046 450.94C581.197 449.939 579.652 446.963 579.668 443.243C579.765 420.48 588.149 401.595 606.917 388.281C613.375 383.7 618.629 375.286 629.429 380.487C637.579 384.411 642.62 390.245 646.374 397.949C648.574 402.464 651.826 406.165 656.121 408.886C665.783 415.009 675.306 413.139 681.756 403.774C683.107 401.812 683.433 399.032 686.265 398.287C690.091 407.528 685.969 414.337 674.313 417.038Z" fill="black"/>
<path d="M650.265 200.364C649.74 193.159 652.439 188.632 659.015 187.663C665.898 186.648 670.351 190.629 672.35 196.749C676.567 209.661 673.135 221.43 664.644 231.325C649.402 249.085 628.403 250.192 608.486 246.491C602.49 245.377 598.604 240.794 599.63 234.268C600.68 227.585 605.2 224.305 612.102 224.286C619.188 224.267 626.316 225.262 633.346 223.497C646.279 220.249 650.565 214.619 650.265 200.364Z" fill="black"/>
<path d="M460.274 518.768C464.591 504.379 468.056 500.72 483.434 494.536C484.742 505.709 482.118 515.912 478.391 525.728C476.903 529.647 472.271 530.955 468.101 530.018C462.756 528.816 459.542 525.434 460.274 518.768Z" fill="black"/>
</g>
<defs>
<clipPath id="clip0_950_119">
<rect width="828" height="824" fill="white"/>
</clipPath>
</defs>
</svg>
